<?xml version="1.0" encoding="UTF-8"?>
<svg id="Layer_1" xmlns="http://www.w3.org/2000/svg" version="1.1" viewBox="0 0 81.66 81.13">
  <!-- Generator: Adobe Illustrator 29.8.5, SVG Export Plug-In . SVG Version: 2.1.1 Build 2)  -->
  <path d="M22.08,5.63c-1.38-1.04-1.66-3-.62-4.38s3-1.66,4.38-.62l7.12,5.33c4.83-2.39,10.5-2.39,15.34,0l7.12-5.33c.66-.5,1.5-.71,2.32-.59s1.56.55,2.06,1.22c1.04,1.38.75,3.34-.62,4.38l-5.62,4.17c1.3,1.41,2.37,3.01,3.16,4.75H24.54c.8-1.73,1.87-3.32,3.16-4.71l-5.63-4.21ZM77.88,67.5c-.99-2.98-3.77-5-6.92-5h-5.33c.69-2.37,1.04-4.82,1.04-7.29v-3.12h11.46c1.73,0,3.12-1.4,3.12-3.12s-1.4-3.12-3.12-3.12h-11.46v-10.42h4.17,0c3.14,0,5.93-2.02,6.92-5l3.21-9.62c.48-1.61-.4-3.31-1.99-3.85-1.59-.54-3.32.28-3.92,1.85l-3.21,9.67h0c-.15.42-.55.7-1,.71h-4.17v-1.04c-.02-4.02-3.27-7.27-7.29-7.29h-15.62v17.25c4.3,1.52,6.89,5.93,6.11,10.43-.77,4.5-4.67,7.79-9.24,7.79s-8.47-3.29-9.24-7.79c-.77-4.5,1.81-8.9,6.11-10.43v-17.25h-15.62c-4.02.02-7.27,3.27-7.29,7.29v1.04h-4.17,0c-.45,0-.85-.29-1-.71l-3.34-9.66c-.6-1.57-2.33-2.39-3.92-1.85-1.59.54-2.47,2.24-1.99,3.85l3.21,9.62c.99,2.98,3.77,5,6.92,5h4.17v10.42H3.12c-1.73,0-3.12,1.4-3.12,3.12s1.4,3.12,3.12,3.12h11.46v3.12c0,2.47.36,4.92,1.04,7.29h-5.33c-3.14,0-5.93,2.02-6.92,5L.17,77.13c-.55,1.63.32,3.41,1.96,3.96.33.06.67.06,1,0,1.34,0,2.53-.86,2.96-2.12l3.21-9.67h0c.15-.42.55-.7,1-.71h8.33c4.7,7.77,13.12,12.52,22.21,12.52s17.51-4.75,22.21-12.52h8.33c.45,0,.84.29,1,.71l3.21,9.67h0c.43,1.27,1.62,2.12,2.96,2.12.33.06.67.06,1,0,1.63-.55,2.51-2.32,1.96-3.96l-3.62-9.62ZM37.5,46.88c0,1.27.76,2.4,1.93,2.89,1.17.48,2.51.21,3.41-.68.89-.89,1.16-2.24.68-3.41-.48-1.17-1.62-1.93-2.89-1.93-1.71.02-3.1,1.41-3.12,3.12h0Z"/>
</svg>