<?xml version="1.0" encoding="UTF-8"?>
<svg id="Layer_1" xmlns="http://www.w3.org/2000/svg" version="1.1" viewBox="0 0 91.67 67.11">
  <!-- Generator: Adobe Illustrator 29.8.5, SVG Export Plug-In . SVG Version: 2.1.1 Build 2)  -->
  <path d="M65.12,53.77c-.41.86-.97,1.57-1.66,2.14-1.48,1.22-3.55,1.75-5.82.87l-16.51-6.35c-.77-.29-1.16-1.16-.86-1.93s1.16-1.16,1.93-.86l16.51,6.35c1.14.44,2.15.2,2.86-.39.35-.29.64-.66.84-1.07.2-.41.32-.86.32-1.29.01-.86-.41-1.73-1.41-2.32l-16.59-9.71c-.2-.1-.37-.24-.52-.43-2.54-3.32-5.99-5.59-10.39-6.64-4.16-1-9.19-.93-15.12.33l-5.14,21.48,24.81,11.17c2.16.97,4.3,1.59,6.46,1.85,2.18.26,4.4.17,6.73-.26l37.43-6.98c1.37-.25,2.19-1.07,2.51-2.03.16-.48.21-1.02.15-1.54-.06-.53-.23-1.05-.51-1.5-.57-.95-1.63-1.64-3.12-1.59l-22.89.72h0ZM65.26,40.29c-16.72-6.34-23.7-14.72-25.13-22.16-.94-4.89.5-9.36,3.18-12.64C45.98,2.21,49.94.12,54.01,0c4.25-.12,8.59,1.86,11.74,6.82C68.89,1.87,73.24-.12,77.49,0c4.07.12,8.03,2.21,10.71,5.49,2.68,3.28,4.12,7.75,3.18,12.64-1.43,7.43-8.42,15.81-25.13,22.16-.33.12-.68.11-.99,0h0ZM16.68,28.09l-9.52-3.11L0,54.86l9.9,1.54,6.78-28.31h0Z"/>
</svg>