<?xml version="1.0" encoding="UTF-8"?>
<svg xmlns="http://www.w3.org/2000/svg" version="1.1" viewBox="0 0 3000 3000">
  <!-- Generator: Adobe Illustrator 29.8.5, SVG Export Plug-In . SVG Version: 2.1.1 Build 2)  -->
  <defs>
    <style>
      .st0 {
        fill: #fff;
      }

      .st1 {
        fill: #800;
      }

      .st2 {
        display: none;
      }
    </style>
  </defs>
  <g id="Layer_4" class="st2">
    <rect class="st1" x="1450" y="1437.5" width="100" height="125"/>
  </g>
  <g id="Layer_2" class="st2">
    <polygon points="1467.43 1529.78 1466.57 1539.85 1467.43 1540.86 1464.99 1542.01 1464.99 1543.73 1467.43 1543.73 1468.44 1542.01 1471.32 1542.01 1473.19 1539.99 1474.48 1540.86 1481.82 1540.42 1482.97 1539.56 1484.23 1539.34 1484.47 1538.27 1485.27 1537.6 1485.27 1530.4 1475.98 1530.4 1475.13 1531.08 1473.95 1530.4 1467.43 1529.78"/>
    <polygon points="1485.94 1530.4 1485.94 1537.88 1485.07 1538.64 1484.68 1540.19 1485.37 1540.47 1485.94 1539.61 1488.91 1538.46 1489.78 1537.31 1488.72 1535.97 1489.78 1535.1 1490.83 1535.44 1490.83 1537.12 1490.16 1538.08 1490.83 1538.55 1492.75 1536.76 1492.21 1533.93 1490.1 1533.86 1490.08 1532.19 1489.49 1531.65 1489.49 1530.4 1485.94 1530.4"/>
    <polygon points="1487.38 1541.34 1486.71 1542.01 1487.04 1543.06 1488.34 1542.2 1488.34 1541.34 1487.38 1541.34"/>
    <polygon points="1470.02 1519.38 1467.41 1529.09 1474.14 1529.78 1475.04 1530.27 1475.7 1529.78 1490.14 1529.78 1490.14 1531.17 1490.75 1531.82 1490.77 1533.22 1492.75 1533.28 1493.42 1536.76 1494.19 1536.76 1494.19 1535.44 1495.34 1535.44 1496.49 1534.62 1497.25 1533.38 1498.02 1534.14 1497.64 1536.76 1499.56 1536.76 1500.04 1535.44 1501.38 1535.44 1502.91 1534.72 1504.35 1534.72 1504.35 1536.25 1505.22 1535.44 1505.22 1534.53 1504.64 1533.86 1505.22 1532.61 1504.35 1529.78 1503.2 1529.06 1501.38 1529.06 1501.38 1530.4 1502.43 1530.4 1502.72 1529.78 1503.59 1530.4 1503.49 1531.46 1504.16 1531.55 1503.59 1533.18 1501.38 1533.76 1499.27 1533.38 1498.79 1531.36 1498.41 1530.4 1497.25 1530.79 1497.25 1529.78 1498.02 1529.35 1497.74 1528.07 1495.15 1526.09 1494.28 1526.86 1493.23 1525.23 1494.09 1523.69 1495.53 1523.21 1495.05 1522.35 1497.25 1521.87 1495.82 1520.05 1494.7 1518.13 1494 1518.13 1492.86 1519.38 1492.08 1518.9 1491.74 1519.21 1491.89 1520.24 1490.35 1520.81 1485.27 1520.81 1483.74 1520.24 1470.02 1519.38"/>
    <polygon points="1470.02 1487.35 1470.02 1497.8 1468.58 1500.39 1469.3 1505.95 1468.58 1506.43 1469.3 1507.97 1470.02 1507.2 1470.5 1508.44 1470.11 1518.74 1477.62 1519.2 1477.45 1515.92 1478.96 1514.91 1478.88 1513.18 1479.68 1511.07 1479.53 1508.47 1481.03 1506.77 1480.86 1506.08 1482.14 1503.68 1483.13 1500.55 1483.57 1497.69 1485.57 1497.96 1488.73 1493.54 1487.3 1491.96 1488.43 1488.8 1487.68 1487.35 1470.02 1487.35"/>
    <polygon points="1492.94 1483.51 1494.16 1508.86 1493.43 1510.58 1495.61 1512.84 1495.63 1514.58 1496.3 1515.3 1496.3 1516.12 1495.58 1518.13 1494.86 1517.51 1493.79 1517.51 1492.79 1518.6 1492 1518.07 1491.04 1519.01 1491.18 1519.9 1490.23 1520.24 1485.38 1520.26 1483.81 1519.57 1478.28 1519.2 1478.1 1516.22 1479.6 1515.22 1479.54 1513.3 1480.33 1511.13 1480.19 1508.73 1481.82 1506.91 1481.63 1506.19 1482.89 1503.83 1483.9 1500.57 1484.24 1498.52 1485.98 1498.74 1489.73 1493.49 1488.24 1491.81 1489.2 1488.83 1488.43 1487.35 1489.82 1484.95 1489.2 1484.42 1490.74 1483.51 1492.03 1484.23 1492.94 1483.51"/>
    <polygon points="1497.25 1515.3 1496.3 1514.29 1496.3 1512.52 1494.33 1510.51 1494.97 1509.01 1493.73 1483.31 1494.62 1483.27 1495.1 1484.38 1495.77 1484.09 1495.77 1481.98 1496.49 1480.54 1498.31 1478.19 1500.09 1477.42 1499.65 1476.75 1500.09 1475.79 1500.85 1475.79 1501.38 1474.26 1500.76 1473.97 1500.76 1473.01 1501.19 1471.24 1500.42 1470.76 1503.3 1467.5 1503.54 1464 1510.97 1453.11 1512.65 1453.11 1512.65 1455.7 1514.33 1456.57 1516.29 1455.37 1519.12 1454.84 1519.31 1453.98 1521.47 1454.07 1524.92 1457.77 1526.17 1475.51 1525.4 1477.04 1529.57 1478.77 1529.57 1480.06 1528.57 1480.01 1529.57 1482.22 1529.09 1483.27 1530.58 1485.43 1531.63 1484.42 1533.17 1485.38 1533.46 1487.78 1532.07 1487.78 1532.21 1489.03 1534.22 1489.07 1534.22 1490.22 1533.36 1490.42 1532.16 1492.38 1531.39 1492.09 1530.2 1492.77 1528.71 1492.38 1528.57 1493.49 1526.7 1494.01 1526.7 1493.1 1525.69 1493.73 1525.21 1495.59 1524.35 1495.64 1523.43 1496.41 1522.96 1494.73 1521.95 1496.36 1520.46 1497.51 1519.93 1494.59 1518.98 1494.59 1518.74 1498.09 1516.29 1496.65 1513.94 1496.03 1514.47 1497.56 1512.98 1500.63 1513.65 1501.25 1511.5 1502.98 1510.39 1501.2 1509.53 1501.92 1509.63 1503.36 1509 1504.56 1506.51 1503.36 1506.03 1504.9 1505.98 1506.38 1505.17 1506.43 1504.35 1504.66 1501 1506.48 1502.1 1507.97 1501.38 1508.4 1500.42 1508.3 1500.09 1509.16 1500.23 1510.36 1499.22 1511.42 1498.45 1511.42 1497.25 1515.3"/>
    <polygon points="1497.78 1537.55 1496.99 1538.27 1496.24 1539.35 1495.37 1539.35 1495.37 1539.78 1496.06 1540.28 1497.25 1539.6 1499.73 1539.53 1500.09 1539.35 1500.09 1538.48 1499.62 1538.23 1499.01 1538.91 1498.72 1537.91 1497.78 1537.55"/>
    <polygon points="1503.14 1539.92 1502.31 1540.28 1502.31 1540.78 1502.96 1540.78 1504.33 1541.34 1505.37 1540.63 1504.8 1538.91 1503.84 1538.91 1503.84 1539.85 1503.14 1539.92"/>
  </g>
  <g id="Layer_3">
    <g>
      <polygon class="st0" points="1427.29 2784.19 1437.5 2816.34 1476.97 2790.04 1476.97 2763.74 1447.74 2763.74 1427.29 2784.19"/>
      <path class="st0" d="M2814.06,1169.48l-4.39-38.01h42.36l-8.75-73.06-46.78-29.23-32.15,30.69-45.29-65.77,14.63-32.15-30.69-67.2,30.69,1.46v-39.47l-127.15-52.6,23.38-46.75-37.98-540.68-105.21-112.52-65.77-2.93-5.85,26.3-86.22,16.06-59.89,36.54-51.14-26.3v-78.91h-51.17l-226.48,331.72-7.31,106.67-87.68,99.36,23.38,14.63-13.14,54.07v29.23l18.99,8.75-16.06,46.78h-23.38l-13.17,29.23,13.17,20.45-54.07,23.38-55.53,71.59-21.94,43.86v64.28l-20.45,8.78-14.6-33.62-27.25,1.07-23.89,6.25-27.77,21.91-39.47-21.91-46.75,27.77,18.99,16.06-42.36,73.09h-561.16v318.55l-43.83,78.91,21.91,169.52-21.91,14.6,21.91,46.78,21.91-23.41,14.63,38.01-12.04,313.86-2.59,19.32-79.64,296.15.73,20.94-26.3,306.88,26.3,30.69-74.52,35.05v52.64h74.52l30.69-52.64h87.68l56.99-61.35,39.44,26.3,223.58-13.17,35.08-26.3,38.52-6.74,13.62,25.81,20.91,8.69,17.52-26.3,90.61-35.08,26.3-35.05-32.15-40.93,32.15-26.3,32.15,10.24v51.14l-20.45,29.23,20.45,14.6,58.46-54.8h43.83v-40.17h35.08l35.08-24.84,23.07-38.01,23.68,23.38-11.7,79.64h58.46l14.63-40.17h40.9l46.75-21.91h43.86v46.75l26.3-24.84v-27.77l-17.56-20.45,17.56-38.01-26.3-86.22-35.08-21.91h-55.53v40.9h32.15l8.78-18.99,26.3,18.99-2.93,32.15,20.45,2.93-17.52,49.68-67.23,17.56-64.28-11.7-14.63-61.38-11.7-29.23-35.35,11.7v-30.69l23.68-13.14-8.78-39.1-78.91-60.29-26.3,23.38-32.15-49.68,26.3-46.75,43.86-14.63-14.63-26.3,66.93-14.6-43.55-55.53-14.75-25.21,7.46-33.25,21.91-61.38v-5.15l28.92-19.69,36.82-118.34h23.41l30.66-32.15-4.36-36.54,10.21-26.3,29.23,2.93,21.91-13.14-33.59-45.32,102.28-55.53,24.84,54.07,24.84-1.46,1.46-45.29,14.6-46.75,76.01,36.51,18.99-36.51-2.93-43.86,26.3-21.91,33.62,54.07,65.74-52.6-20.45-18.99,45.29-93.54-16.06-46.75,71.59,18.99,74.55,43.86,7.28-106.67h29.23l16.09,89.12,45.29-35.05,30.69-49.71,14.6,51.17,27.77-23.41,26.3-1.46,14.63-56.96,30.69-19.02v27.77l56.99-16.06,4.39-33.62,45.29,11.7,36.54-20.48,23.38,8.78,36.51-59.92,26.3-5.85v-35.05l-61.35-1.46ZM1557.02,1288.15c.18-24.28,14.48-38.57,36.94-38.2,21.59.35,34.8,14.25,35.58,37.44.02.72,0,1.44,0,2.16,0,21.58,0,43.16,0,64.74,0,22.3.21,44.6-.05,66.89-.29,25.29-12.85,38.66-35.86,38.81-23.17.16-36.45-13.18-36.63-38.05-.32-44.59-.33-89.19,0-133.79ZM1296.61,1659c-.3,24.88-13.47,38.5-36.45,38.34-21.76-.15-35.71-13.78-35.95-36.96-.47-45.36.52-90.74-.39-136.08-.55-27.09,28.3-47.68,54.66-33.25,12.41,6.79,18.65,17.52,18.18,31.86-.02.72,0,1.44,0,2.16,0,22.32,0,44.64,0,66.96,0,22.32.21,44.64-.06,66.96ZM1821.03,1651.89c-.02,31.85-13.87,45.51-46.18,45.58-50.45.11-100.91-.63-151.33.37-18.86.38-32.7-5.77-45.82-18.97-107.2-107.84-214.86-215.23-322.37-322.75-3.57-3.57-7.48-6.86-10.65-10.75-22.6-27.74-52.09-29.72-88.33-22.64-.87,10.75-2.32,20.55-2.34,30.34-.17,100.89-.07,201.78-.12,302.68-.02,30.64-10.9,41.57-41.32,41.73-19.44.1-38.87.02-57.99.02-16.44-9.05-21.1-23.29-21.06-40.14.08-33.15.02-66.3.02-99.45,0-87.2-.04-174.4.02-261.6.02-31.18,14.91-46.91,45.84-47.15,51.88-.4,103.78.2,155.66-.29,17.31-.16,29.92,7.09,41.68,18.97,55.27,55.81,110.96,111.21,166.5,166.76,54.52,54.53,109.02,109.08,163.62,163.53,6.62,6.6,13.59,12.89,20.82,18.8,21.55,17.62,45.26,12.66,71.13,7.67.88-11.24,2.31-21.11,2.33-30.97.17-100.17.07-200.34.12-300.51.02-32.48,11.45-43.78,44.34-44.06,13.69-.12,27.39-.25,41.08.04,21.14.45,31.79,10.2,34.07,30.94.47,4.28.3,8.64.3,12.96.01,119.63.05,239.26-.01,358.89Z"/>
      <polygon class="st0" points="1802.1 2689.95 1793.33 2659.26 1764.83 2648.29 1740.72 2670.23 1717.71 2703.09 1691.41 2703.09 1691.41 2716.26 1712.22 2731.59 1748.46 2710.77 1824.02 2708.58 1834.99 2703.09 1834.99 2676.79 1820.73 2669.14 1802.1 2689.95"/>
      <polygon class="st0" points="1949.49 2689.95 1949.49 2718.45 1928.13 2720.64 1902.92 2731.59 1902.92 2746.95 1922.64 2746.95 1964.31 2763.74 1996.09 2742.19 1978.54 2689.95 1949.49 2689.95"/>
    </g>
  </g>
</svg>