<?xml version="1.0" encoding="UTF-8"?>
<svg id="Layer_1" xmlns="http://www.w3.org/2000/svg" version="1.1" viewBox="0 0 83.34 83.34">
  <!-- Generator: Adobe Illustrator 29.8.5, SVG Export Plug-In . SVG Version: 2.1.1 Build 2)  -->
  <path d="M41.67,83.34c1.11,0,2.16-.44,2.95-1.22s1.22-1.84,1.22-2.95v-38.27c4.99-1.73,8.33-6.44,8.33-11.72s-3.34-9.98-8.33-11.72V4.17c0-2.3-1.87-4.17-4.17-4.17s-4.17,1.87-4.17,4.17v13.28c-4.99,1.73-8.33,6.44-8.33,11.72s3.34,9.99,8.33,11.72v38.27c0,1.11.44,2.16,1.22,2.95s1.84,1.22,2.95,1.22ZM41.67,25c1.68,0,3.2,1.02,3.85,2.57.65,1.55.29,3.35-.9,4.54-1.19,1.19-2.98,1.55-4.54.9-1.56-.64-2.57-2.16-2.57-3.85,0-2.3,1.87-4.16,4.17-4.17h0Z"/>
  <path d="M8.48,65.95c-.07.23-.12.48-.14.72v12.5c0,2.3,1.86,4.17,4.16,4.17s4.17-1.87,4.17-4.17v-12.5c-.03-.25-.07-.49-.14-.72,5.04-1.69,8.45-6.39,8.48-11.7.04-5.31-3.32-10.06-8.33-11.81V4.17c0-2.3-1.87-4.17-4.17-4.17s-4.16,1.87-4.16,4.17v38.27C3.32,44.18-.03,48.93,0,54.24c.04,5.31,3.44,10.02,8.48,11.7h0ZM12.5,50c1.69,0,3.21,1.02,3.85,2.57.64,1.55.29,3.35-.9,4.54s-2.98,1.55-4.54.9c-1.55-.64-2.57-2.16-2.57-3.85,0-2.3,1.86-4.16,4.16-4.17h0Z"/>
  <path d="M83.34,54.17c-.02-5.28-3.36-9.98-8.34-11.73V4.17C75,1.87,73.14,0,70.84,0s-4.17,1.87-4.17,4.17v38.27c-5.02,1.75-8.37,6.49-8.33,11.81.03,5.31,3.44,10.02,8.48,11.7-.07.23-.12.48-.14.72v12.5c0,2.3,1.87,4.17,4.17,4.17s4.16-1.87,4.16-4.17v-12.5c-.02-.25-.07-.49-.14-.72,5.05-1.71,8.46-6.44,8.48-11.78h0ZM70.84,58.34c-1.69,0-3.21-1.02-3.85-2.57-.64-1.55-.29-3.35.9-4.54,1.19-1.19,2.98-1.55,4.54-.9,1.55.64,2.57,2.16,2.57,3.85,0,2.3-1.86,4.16-4.16,4.17h0Z"/>
</svg>